<?xml version="1.0" encoding="iso-8859-1"?>
<!-- Generator: Adobe Illustrator 19.0.1, SVG Export Plug-In . SVG Version: 6.00 Build 0)  -->
<svg version="1.1" xmlns="http://www.w3.org/2000/svg" xmlns:xlink="http://www.w3.org/1999/xlink" x="0px" y="0px"
	 viewBox="0 0 128 128" style="enable-background:new 0 0 128 128;" xml:space="preserve">
<g id="_x39_">
	<path id="icon_8_" style="fill:#191919;" d="M125.134,70.459L65.533,14.274L2.255,33.724l3.885,3.846L5.58,49.028L0,53.017
		l60.54,60.709l1.564-0.561c1.929-0.691,47.386-17.116,56.082-20.558c5.697-2.255,8.956-8.213,9.66-13.114
		C128.406,75.609,127.428,72.324,125.134,70.459z M61.048,106.856L9.204,54.868l0.678-13.597l51.871,51.336L61.048,106.856z
		 M12.111,36.148l43.306-13.31l51.349,49.563C92.4,77.369,71.933,86.103,65.428,88.906L12.111,36.148z M122.696,78.737
		c-0.495,3.415-2.868,7.613-6.44,9.021c-6.987,2.777-39.161,14.444-51.284,18.824l0.613-12.058l0.3-0.13
		c18.511-8.056,48.234-20.115,54.296-20.323c0.704-0.026,1.265,0.117,1.643,0.404C122.644,75.126,122.983,76.756,122.696,78.737z"/>
</g>
<g id="Layer_1">
</g>
</svg>
